<svg width="92" height="32" viewBox="0 0 92 32" fill="none" xmlns="http://www.w3.org/2000/svg">
<path d="M83.4784 23.9427C82.6553 23.9427 81.9161 23.7831 81.261 23.464C80.6226 23.1448 80.1103 22.7164 79.7239 22.1788C79.3543 21.6245 79.1695 20.9861 79.1695 20.2638C79.1695 19.323 79.4719 18.5587 80.0767 17.9707C80.6814 17.3828 81.5466 16.9796 82.6721 16.7612L85.6203 16.1565C86.2082 16.0389 86.6114 15.8541 86.8298 15.6021C87.0482 15.3501 87.1574 14.9806 87.1574 14.4934L87.4597 17.4416L83.2264 18.3487C82.6553 18.4663 82.2101 18.6763 81.8909 18.9787C81.5886 19.2811 81.4374 19.701 81.4374 20.2386C81.4374 20.7929 81.6474 21.2381 82.0673 21.5741C82.5041 21.9101 83.0921 22.0781 83.8312 22.0781C84.436 22.0781 84.9903 21.9437 85.4943 21.6749C86.015 21.4061 86.4182 21.0365 86.7038 20.5662C87.0062 20.079 87.1574 19.5246 87.1574 18.9031V14.4934C87.1574 13.8886 86.939 13.4183 86.5022 13.0823C86.0822 12.7295 85.5027 12.5531 84.7635 12.5531C83.8228 12.5531 83.1005 12.7883 82.5965 13.2587C82.0925 13.729 81.7985 14.3926 81.7146 15.2493L79.4971 14.947C79.5811 14.0566 79.8499 13.2923 80.3035 12.6539C80.757 11.9988 81.3618 11.4948 82.1177 11.142C82.8737 10.7893 83.7724 10.6129 84.8139 10.6129C86.2922 10.6129 87.4261 10.9908 88.2157 11.7468C89.0052 12.5027 89.4 13.4771 89.4 14.6698V23.5647H87.2078V21.9269C86.9894 22.4812 86.5442 22.96 85.8723 23.3632C85.2171 23.7495 84.4192 23.9427 83.4784 23.9427Z" fill="black"/>
<path d="M61.3028 23.5647V10.9908H63.4951V12.4019C63.6631 11.9148 64.0326 11.4948 64.6038 11.142C65.1749 10.7893 65.8385 10.6129 66.5944 10.6129C67.3336 10.6129 68.0139 10.7725 68.6355 11.0916C69.2571 11.4108 69.6602 11.8896 69.845 12.5279C70.0634 11.94 70.4666 11.478 71.0545 11.142C71.6593 10.7893 72.3312 10.6129 73.0704 10.6129C74.3471 10.6129 75.3214 10.9824 75.9934 11.7216C76.6653 12.4607 77.0013 13.5359 77.0013 14.947V23.5647H74.7587V15.2493C74.7587 14.4094 74.5739 13.7794 74.2043 13.3595C73.8515 12.9227 73.3308 12.7043 72.642 12.7043C71.8861 12.7043 71.2981 12.9731 70.8781 13.5107C70.475 14.0314 70.2734 14.7958 70.2734 15.8037V23.5647H68.0307V15.2493C68.0307 14.4094 67.846 13.7794 67.4764 13.3595C67.1236 12.9227 66.6028 12.7043 65.9141 12.7043C65.1581 12.7043 64.5702 12.9731 64.1502 13.5107C63.747 14.0314 63.5455 14.7958 63.5455 15.8037V23.5647H61.3028Z" fill="black"/>
<path d="M52.7277 28.1004C51.1654 28.1004 49.8971 27.7393 48.9227 27.0169C47.9484 26.2946 47.3268 25.2866 47.0581 23.9931L49.2503 23.5144C49.4351 24.3375 49.8299 24.9758 50.4346 25.4294C51.0394 25.8998 51.8037 26.135 52.7277 26.135C53.8364 26.135 54.6679 25.8494 55.2223 25.2782C55.7934 24.7239 56.079 23.8923 56.079 22.7836V20.7929C55.827 21.4145 55.3567 21.9185 54.6679 22.3048C53.996 22.6912 53.24 22.8844 52.4001 22.8844C51.2914 22.8844 50.317 22.6324 49.4771 22.1284C48.6371 21.6077 47.982 20.8853 47.5116 19.9614C47.0413 19.0375 46.8061 17.9707 46.8061 16.7612C46.8061 15.5349 47.0413 14.4598 47.5116 13.5359C47.982 12.6119 48.6287 11.898 49.4519 11.394C50.2918 10.8732 51.2746 10.6129 52.4001 10.6129C53.24 10.6129 54.0044 10.8061 54.6931 11.1924C55.3987 11.562 55.8774 12.024 56.1294 12.5783V10.9908H58.3217V22.7836C58.3217 23.8923 58.1033 24.8415 57.6665 25.631C57.2297 26.4373 56.5914 27.0505 55.7514 27.4705C54.9283 27.8904 53.9204 28.1004 52.7277 28.1004ZM52.6773 20.8937C53.7524 20.8937 54.6091 20.5158 55.2475 19.7598C55.9026 19.0039 56.2302 18.0043 56.2302 16.7612C56.2302 15.5013 55.9026 14.4934 55.2475 13.7374C54.5923 12.9815 53.7356 12.6035 52.6773 12.6035C51.6021 12.6035 50.737 12.9815 50.0818 13.7374C49.4435 14.4934 49.1243 15.5013 49.1243 16.7612C49.1243 18.0043 49.4519 19.0039 50.107 19.7598C50.7622 20.5158 51.6189 20.8937 52.6773 20.8937Z" fill="black"/>
<path d="M42.2803 23.5647V10.9908H44.5229V23.5647H42.2803ZM42.2551 9.37809V5.79999H44.5481V9.37809H42.2551Z" fill="black"/>
<path d="M29.4 23.5647V5.79999H31.7686V23.5647H29.4ZM29.8788 16.0557V13.9138H39.5297V16.0557H29.8788ZM29.8788 7.96699V5.79999H40.462V7.96699H29.8788Z" fill="black"/>
<path fill-rule="evenodd" clip-rule="evenodd" d="M3.92991 11.8891C2.58748 11.0143 1.70001 9.49989 1.70001 7.77811C1.70001 5.0702 3.89521 2.875 6.60312 2.875H15.0037C17.7116 2.875 19.9068 5.0702 19.9068 7.77811C19.9068 9.49989 19.0194 11.0143 17.6769 11.8891C19.0194 12.7638 19.9068 14.2783 19.9068 16C19.9068 18.7079 17.7116 20.9032 15.0037 20.9032H14.9143C13.6343 20.9032 12.4688 20.4126 11.5956 19.6093V24.1772C11.5956 26.9154 9.35237 29.125 6.62534 29.125C3.92299 29.125 1.70001 26.9354 1.70001 24.2219C1.70001 22.5002 2.58744 20.9857 3.92982 20.111C2.58744 19.2362 1.70001 17.7218 1.70001 16C1.70001 14.2783 2.58748 12.7638 3.92991 11.8891ZM11.5956 16C11.5956 17.8329 13.0815 19.3188 14.9143 19.3188H15.0037C16.8366 19.3188 18.3225 17.8329 18.3225 16C18.3225 14.1671 16.8366 12.6813 15.0037 12.6813H14.9143C13.0815 12.6813 11.5956 14.1671 11.5956 16ZM10.0112 12.6813H6.60312C4.77021 12.6813 3.28437 14.1671 3.28437 16C3.28437 17.8292 4.76422 19.3127 6.59196 19.3188H6.59717H10.0112V12.6813ZM6.60312 20.9032C6.5994 20.9032 6.59568 20.9032 6.59196 20.9032C4.76422 20.9091 3.28437 22.3927 3.28437 24.2219C3.28437 26.0492 4.78688 27.5406 6.62534 27.5406C8.48848 27.5406 10.0112 26.0292 10.0112 24.1772V20.9032H6.60312ZM10.0112 11.0968H6.60312C4.77021 11.0968 3.28437 9.61101 3.28437 7.77811C3.28437 5.9452 4.77021 4.45936 6.60312 4.45936H10.0112V11.0968ZM15.0037 11.0968H11.5956V4.45936H15.0037C16.8366 4.45936 18.3225 5.9452 18.3225 7.77811C18.3225 9.61101 16.8366 11.0968 15.0037 11.0968Z" fill="black"/>
</svg>
